<?xml version="1.0" encoding="UTF-8" standalone="no"?>
<!DOCTYPE svg PUBLIC "-//W3C//DTD SVG 1.1//EN"
 "http://www.w3.org/Graphics/SVG/1.1/DTD/svg11.dtd">
<!-- Generated by graphviz version 12.2.1 (0)
 -->
<!-- Title: G Pages: 1 -->
<svg width="1077pt" height="155pt"
 viewBox="0.00 0.00 1077.50 155.00" xmlns="http://www.w3.org/2000/svg" xmlns:xlink="http://www.w3.org/1999/xlink">
 <style>
path,ellipse,polyline {stroke:#000000;}
@media (prefers-color-scheme: dark) {
      path,ellipse,polyline {stroke:#FFFFFF;}
}
text {color:#000000;fill:#000000}
@media (prefers-color-scheme: dark) {
      text {color:#FFFFFF;fill:#FFFFFF}
}
</style>

<g id="graph0" class="graph" transform="scale(1 1) rotate(0) translate(4 151)">
<title>G</title>
<!-- n_0 -->
<g id="node1" class="node">
<title>n_0</title>
<ellipse   cx="315.15" cy="-112.5" rx="1.8" ry="1.8"/>
<text text-anchor="middle" x="289.35" y="-97.4" font-family="Times,serif" font-size="14.00" >Tensor</text>
</g>
<!-- e_2 -->
<g id="node11" class="node">
<title>e_2</title>
<path fill="none"  d="M364.95,-60.25C364.95,-60.25 517.2,-60.25 517.2,-60.25 523.2,-60.25 529.2,-66.25 529.2,-72.25 529.2,-72.25 529.2,-98.75 529.2,-98.75 529.2,-104.75 523.2,-110.75 517.2,-110.75 517.2,-110.75 364.95,-110.75 364.95,-110.75 358.95,-110.75 352.95,-104.75 352.95,-98.75 352.95,-98.75 352.95,-72.25 352.95,-72.25 352.95,-66.25 358.95,-60.25 364.95,-60.25"/>
<text text-anchor="middle" x="363.2" y="-93.45" font-family="Times,serif" font-size="14.00" > </text>
<polyline fill="none"  points="352.95,-85.5 373.45,-85.5"/>
<text text-anchor="middle" x="363.2" y="-68.2" font-family="Times,serif" font-size="14.00" > </text>
<polyline fill="none"  points="373.45,-60.25 373.45,-110.75"/>
<text text-anchor="middle" x="441.07" y="-80.83" font-family="Times,serif" font-size="14.00" >tensor.broadcast</text>
<polyline fill="none"  points="508.7,-60.25 508.7,-110.75"/>
<text text-anchor="middle" x="518.95" y="-80.95" font-family="Times,serif" font-size="14.00" > </text>
</g>
<!-- n_0&#45;&gt;e_2 -->
<g id="edge6" class="edge">
<title>n_0&#45;&gt;e_2:s_0</title>
<path fill="none"  d="M317.23,-111.73C321.53,-108.74 337.86,-98.12 352.95,-98.12"/>
</g>
<!-- n_1 -->
<g id="node2" class="node">
<title>n_1</title>
<ellipse   cx="91.8" cy="-45.5" rx="1.8" ry="1.8"/>
<text text-anchor="middle" x="117.6" y="-41.73" font-family="Times,serif" font-size="14.00" >Tensor</text>
</g>
<!-- e_1 -->
<g id="node10" class="node">
<title>e_1</title>
<path fill="none"  d="M141.6,-55.5C141.6,-55.5 265.35,-55.5 265.35,-55.5 271.35,-55.5 277.35,-61.5 277.35,-67.5 277.35,-67.5 277.35,-79.5 277.35,-79.5 277.35,-85.5 271.35,-91.5 265.35,-91.5 265.35,-91.5 141.6,-91.5 141.6,-91.5 135.6,-91.5 129.6,-85.5 129.6,-79.5 129.6,-79.5 129.6,-67.5 129.6,-67.5 129.6,-61.5 135.6,-55.5 141.6,-55.5"/>
<text text-anchor="middle" x="139.85" y="-69.2" font-family="Times,serif" font-size="14.00" > </text>
<polyline fill="none"  points="150.1,-56.25 150.1,-91.5"/>
<text text-anchor="middle" x="203.47" y="-69.2" font-family="Times,serif" font-size="14.00" >tensor.shape</text>
<polyline fill="none"  points="256.85,-56.25 256.85,-91.5"/>
<text text-anchor="middle" x="267.1" y="-69.2" font-family="Times,serif" font-size="14.00" > </text>
</g>
<!-- n_1&#45;&gt;e_1 -->
<g id="edge4" class="edge">
<title>n_1&#45;&gt;e_1:s_0</title>
<path fill="none"  d="M93.53,-46.72C96.91,-52.15 111.53,-73.88 129.6,-73.88"/>
</g>
<!-- e_3 -->
<g id="node12" class="node">
<title>e_3</title>
<path fill="none"  d="M149.47,-0.5C149.47,-0.5 257.47,-0.5 257.47,-0.5 263.47,-0.5 269.47,-6.5 269.47,-12.5 269.47,-12.5 269.47,-24.5 269.47,-24.5 269.47,-30.5 263.47,-36.5 257.47,-36.5 257.47,-36.5 149.47,-36.5 149.47,-36.5 143.47,-36.5 137.47,-30.5 137.47,-24.5 137.47,-24.5 137.47,-12.5 137.47,-12.5 137.47,-6.5 143.47,-0.5 149.47,-0.5"/>
<text text-anchor="middle" x="147.72" y="-14.2" font-family="Times,serif" font-size="14.00" > </text>
<polyline fill="none"  points="157.97,-1.25 157.97,-36.5"/>
<text text-anchor="middle" x="203.47" y="-14.2" font-family="Times,serif" font-size="14.00" >tensor.neg</text>
<polyline fill="none"  points="248.97,-1.25 248.97,-36.5"/>
<text text-anchor="middle" x="259.22" y="-14.2" font-family="Times,serif" font-size="14.00" > </text>
</g>
<!-- n_1&#45;&gt;e_3 -->
<g id="edge9" class="edge">
<title>n_1&#45;&gt;e_3:s_0</title>
<path fill="none"  d="M93.74,-44.36C98.06,-39.26 116.58,-18.88 136.47,-18.88"/>
</g>
<!-- n_2 -->
<g id="node3" class="node">
<title>n_2</title>
<ellipse   cx="315.15" cy="-73.5" rx="1.8" ry="1.8"/>
<text text-anchor="middle" x="294.82" y="-58.4" font-family="Times,serif" font-size="14.00" >Shape</text>
</g>
<!-- n_2&#45;&gt;e_2 -->
<g id="edge7" class="edge">
<title>n_2&#45;&gt;e_2:s_1</title>
<path fill="none"  d="M317.29,-73.47C321.82,-73.34 338.89,-72.88 352.95,-72.88"/>
</g>
<!-- n_3 -->
<g id="node4" class="node">
<title>n_3</title>
<ellipse   cx="567" cy="-85.5" rx="1.8" ry="1.8"/>
<text text-anchor="middle" x="592.8" y="-70.4" font-family="Times,serif" font-size="14.00" >Tensor</text>
</g>
<!-- e_5 -->
<g id="node14" class="node">
<title>e_5</title>
<path fill="none"  d="M616.8,-6.25C616.8,-6.25 724.8,-6.25 724.8,-6.25 730.8,-6.25 736.8,-12.25 736.8,-18.25 736.8,-18.25 736.8,-44.75 736.8,-44.75 736.8,-50.75 730.8,-56.75 724.8,-56.75 724.8,-56.75 616.8,-56.75 616.8,-56.75 610.8,-56.75 604.8,-50.75 604.8,-44.75 604.8,-44.75 604.8,-18.25 604.8,-18.25 604.8,-12.25 610.8,-6.25 616.8,-6.25"/>
<text text-anchor="middle" x="615.05" y="-39.45" font-family="Times,serif" font-size="14.00" > </text>
<polyline fill="none"  points="604.8,-31.5 625.3,-31.5"/>
<text text-anchor="middle" x="615.05" y="-14.2" font-family="Times,serif" font-size="14.00" > </text>
<polyline fill="none"  points="625.3,-6.25 625.3,-56.75"/>
<text text-anchor="middle" x="670.8" y="-26.82" font-family="Times,serif" font-size="14.00" >tensor.add</text>
<polyline fill="none"  points="716.3,-6.25 716.3,-56.75"/>
<text text-anchor="middle" x="726.55" y="-26.95" font-family="Times,serif" font-size="14.00" > </text>
</g>
<!-- n_3&#45;&gt;e_5 -->
<g id="edge13" class="edge">
<title>n_3&#45;&gt;e_5:s_0</title>
<path fill="none"  d="M569.16,-85.1C576.41,-82.6 615.05,-68.75 615.05,-57.75"/>
</g>
<!-- e_6 -->
<g id="node15" class="node">
<title>e_6</title>
<path fill="none"  d="M824.4,-39.25C824.4,-39.25 927.9,-39.25 927.9,-39.25 933.9,-39.25 939.9,-45.25 939.9,-51.25 939.9,-51.25 939.9,-77.75 939.9,-77.75 939.9,-83.75 933.9,-89.75 927.9,-89.75 927.9,-89.75 824.4,-89.75 824.4,-89.75 818.4,-89.75 812.4,-83.75 812.4,-77.75 812.4,-77.75 812.4,-51.25 812.4,-51.25 812.4,-45.25 818.4,-39.25 824.4,-39.25"/>
<text text-anchor="middle" x="822.65" y="-72.45" font-family="Times,serif" font-size="14.00" > </text>
<polyline fill="none"  points="812.4,-64.5 832.9,-64.5"/>
<text text-anchor="middle" x="822.65" y="-47.2" font-family="Times,serif" font-size="14.00" > </text>
<polyline fill="none"  points="832.9,-39.25 832.9,-89.75"/>
<text text-anchor="middle" x="876.15" y="-59.83" font-family="Times,serif" font-size="14.00" >tensor.div</text>
<polyline fill="none"  points="919.4,-39.25 919.4,-89.75"/>
<text text-anchor="middle" x="929.65" y="-59.95" font-family="Times,serif" font-size="14.00" > </text>
</g>
<!-- n_3&#45;&gt;e_6 -->
<g id="edge16" class="edge">
<title>n_3&#45;&gt;e_6:s_0</title>
<path fill="none"  d="M568.88,-85.45C580.66,-84.73 708.81,-77.12 812.4,-77.12"/>
</g>
<!-- n_4 -->
<g id="node5" class="node">
<title>n_4</title>
<ellipse   cx="315.15" cy="-19.5" rx="1.8" ry="1.8"/>
<text text-anchor="middle" x="292.95" y="-4.4" font-family="Times,serif" font-size="14.00" >Tensor</text>
</g>
<!-- e_4 -->
<g id="node13" class="node">
<title>e_4</title>
<path fill="none"  d="M400.57,-1.5C400.57,-1.5 481.57,-1.5 481.57,-1.5 487.57,-1.5 493.57,-7.5 493.57,-13.5 493.57,-13.5 493.57,-25.5 493.57,-25.5 493.57,-31.5 487.57,-37.5 481.57,-37.5 481.57,-37.5 400.57,-37.5 400.57,-37.5 394.57,-37.5 388.57,-31.5 388.57,-25.5 388.57,-25.5 388.57,-13.5 388.57,-13.5 388.57,-7.5 394.57,-1.5 400.57,-1.5"/>
<text text-anchor="middle" x="398.82" y="-15.2" font-family="Times,serif" font-size="14.00" > </text>
<polyline fill="none"  points="409.07,-2.25 409.07,-37.5"/>
<text text-anchor="middle" x="441.07" y="-15.2" font-family="Times,serif" font-size="14.00" >nn.exp</text>
<polyline fill="none"  points="473.07,-2.25 473.07,-37.5"/>
<text text-anchor="middle" x="483.32" y="-15.2" font-family="Times,serif" font-size="14.00" > </text>
</g>
<!-- n_4&#45;&gt;e_4 -->
<g id="edge11" class="edge">
<title>n_4&#45;&gt;e_4:s_0</title>
<path fill="none"  d="M317.16,-19.51C323.52,-19.57 358.81,-19.88 387.57,-19.88"/>
</g>
<!-- n_5 -->
<g id="node6" class="node">
<title>n_5</title>
<ellipse   cx="567" cy="-19.5" rx="1.8" ry="1.8"/>
<text text-anchor="middle" x="541.2" y="-4.4" font-family="Times,serif" font-size="14.00" >Tensor</text>
</g>
<!-- n_5&#45;&gt;e_5 -->
<g id="edge14" class="edge">
<title>n_5&#45;&gt;e_5:s_1</title>
<path fill="none"  d="M569.14,-19.47C573.67,-19.34 590.74,-18.88 604.8,-18.88"/>
</g>
<!-- n_6 -->
<g id="node7" class="node">
<title>n_6</title>
<ellipse   cx="774.6" cy="-43.5" rx="1.8" ry="1.8"/>
<text text-anchor="middle" x="800.4" y="-28.4" font-family="Times,serif" font-size="14.00" >Tensor</text>
</g>
<!-- n_6&#45;&gt;e_6 -->
<g id="edge17" class="edge">
<title>n_6&#45;&gt;e_6:s_1</title>
<path fill="none"  d="M776.72,-43.95C781.17,-45.69 797.99,-51.88 812.4,-51.88"/>
</g>
<!-- n_7 -->
<g id="node8" class="node">
<title>n_7</title>
<ellipse   cx="977.7" cy="-64.5" rx="1.8" ry="1.8"/>
<text text-anchor="middle" x="955.5" y="-70.25" font-family="Times,serif" font-size="14.00" >Tensor</text>
</g>
<!-- targets -->
<g id="node17" class="node">
<title>targets</title>
</g>
<!-- n_7&#45;&gt;targets -->
<g id="edge2" class="edge">
<title>n_7&#45;&gt;targets:p_0</title>
<path fill="none"  stroke-dasharray="5,2" d="M979.84,-64.52C984.37,-64.6 1001.44,-64.88 1015.5,-64.88"/>
</g>
<!-- e_0 -->
<g id="node9" class="node">
<title>e_0</title>
<path fill="none"  d="M188.47,-110.5C188.47,-110.5 218.47,-110.5 218.47,-110.5 224.47,-110.5 230.47,-116.5 230.47,-122.5 230.47,-122.5 230.47,-134.5 230.47,-134.5 230.47,-140.5 224.47,-146.5 218.47,-146.5 218.47,-146.5 188.47,-146.5 188.47,-146.5 182.47,-146.5 176.47,-140.5 176.47,-134.5 176.47,-134.5 176.47,-122.5 176.47,-122.5 176.47,-116.5 182.47,-110.5 188.47,-110.5"/>
<text text-anchor="middle" x="190.97" y="-124.2" font-family="Times,serif" font-size="14.00" >1</text>
<polyline fill="none"  points="205.47,-111.25 205.47,-146.5"/>
<text text-anchor="middle" x="217.72" y="-124.2" font-family="Times,serif" font-size="14.00" > </text>
</g>
<!-- e_0&#45;&gt;n_0 -->
<g id="edge3" class="edge">
<title>e_0:t_0&#45;&gt;n_0</title>
<path fill="none"  d="M230.97,-128.88C265.12,-128.88 305.69,-115.43 312.99,-112.9"/>
</g>
<!-- e_1&#45;&gt;n_2 -->
<g id="edge5" class="edge">
<title>e_1:t_0&#45;&gt;n_2</title>
<path fill="none"  d="M277.35,-73.88C291.41,-73.88 308.48,-73.6 313.01,-73.52"/>
</g>
<!-- e_2&#45;&gt;n_3 -->
<g id="edge8" class="edge">
<title>e_2:t_0&#45;&gt;n_3</title>
<path fill="none"  d="M529.2,-85.62C543.26,-85.62 560.33,-85.53 564.86,-85.51"/>
</g>
<!-- e_3&#45;&gt;n_4 -->
<g id="edge10" class="edge">
<title>e_3:t_0&#45;&gt;n_4</title>
<path fill="none"  d="M270.47,-18.88C287.46,-18.88 308.16,-19.35 313.07,-19.47"/>
</g>
<!-- e_4&#45;&gt;n_5 -->
<g id="edge12" class="edge">
<title>e_4:t_0&#45;&gt;n_5</title>
<path fill="none"  d="M494.57,-19.88C523.34,-19.88 558.63,-19.57 564.99,-19.51"/>
</g>
<!-- e_5&#45;&gt;n_6 -->
<g id="edge15" class="edge">
<title>e_5:t_0&#45;&gt;n_6</title>
<path fill="none"  d="M736.8,-31.62C751.57,-31.62 768.13,-40.39 772.5,-42.86"/>
</g>
<!-- e_6&#45;&gt;n_7 -->
<g id="edge18" class="edge">
<title>e_6:t_0&#45;&gt;n_7</title>
<path fill="none"  d="M939.9,-64.62C953.96,-64.62 971.03,-64.53 975.56,-64.51"/>
</g>
<!-- sources -->
<g id="node16" class="node">
<title>sources</title>
</g>
<!-- sources&#45;&gt;n_1 -->
<g id="edge1" class="edge">
<title>sources:p_0&#45;&gt;n_1</title>
<path fill="none"  stroke-dasharray="5,2" d="M54,-45.88C68.06,-45.88 85.13,-45.6 89.66,-45.52"/>
</g>
</g>
</svg>
